<svg id="Layer_1" data-name="Layer 1" xmlns="http://www.w3.org/2000/svg" viewBox="0 0 1024 1024"><defs><style>.cls-1{fill:#2464f4;}.cls-2{isolation:isolate;}.cls-3,.cls-4,.cls-5{fill:#fff;}.cls-3{opacity:0.3;}.cls-5{opacity:0.4;}</style></defs><circle class="cls-1" cx="512" cy="512" r="233"/><g class="cls-2"><path class="cls-3" d="M629.26,505.64c-31.14-39.85-85.18-60.67-135.13-57.52,7.56-.48,19.2,13.12,23.6,18.25a73.42,73.42,0,0,1,9.14,12.87l-.09,0,.05.09-.06,0h0s-11.81-4.09-31.66-6.6c-44.49-5.63-88.83,1.7-126.9,26.06h0a52.13,52.13,0,0,0,9.14,12.1l.52.51.09.08A55.45,55.45,0,0,0,397,522.72l1.29.45.3.1a95.56,95.56,0,0,0,20.43,4.13h0s-11-24.18,18.7-31A103.68,103.68,0,0,1,460,493.73c49.94-.49,85.55,37.36,85.15,70.69-.26,22.33-12.56,44.45-30.54,57.66A62,62,0,0,1,495,632.28a101.07,101.07,0,0,1-26,5.5l-.6.06-.64,0a164.69,164.69,0,0,1-24.71.18c-23.39-1.5-47.05-7.32-68.21-17.84a136.55,136.55,0,0,1-37.47-26.76l-.49-.51q-1.14-1.19-2.25-2.4l-.78-.86-.65-.72a84.43,84.43,0,0,1-5.92-7.26,167.13,167.13,0,0,1-12.06-18.33c-6.22-10.51-12-22.15-14.64-31.59a38.69,38.69,0,0,1-1.23-5.37c5,48.35,26.49,102.44,61,137.34a216.91,216.91,0,0,0,33,27.4c82,55.35,255.4,54.39,270.3-71.53,4.64-39.22-9.88-82.3-33.81-113.39C629.65,506.05,629.46,505.84,629.26,505.64Z"/><path class="cls-4" d="M605.91,297.26c1.55,1.07-2.22,16.69-5.6,22.28A213.82,213.82,0,0,1,718.09,569c-.64-8.64-7.07-50.73-39.1-92.8-39.83-52.3-112.61-65-112.61-65s36.66.65,88.24,23.89l-11.09-13.7c2.25-2.12,36.14,9.85,59.66,46.17.21.27,1-1.27,0-2.93-7.16-11.61-32.73-73.16-137.53-78,0,0-25.07,18.36-48.73,23.8,0,0,15.23-17.7,15.35-27.69,0,0,43.77-14.14,59.17-46.49l-12.15-.14s16.66-19,26.57-38.85A233.43,233.43,0,0,0,512,277.66c-129.42,0-234.34,104.92-234.34,234.34S382.58,746.34,512,746.34,746.34,641.42,746.34,512C746.34,416,688.58,333.46,605.91,297.26Zm55.24,318.15c-14.89,125.92-185.81,131.11-267.8,75.76a216.91,216.91,0,0,1-33-27.4c-34.49-34.9-56-89-61-137.34a79.36,79.36,0,0,1-.64-12.32,216.43,216.43,0,0,1,7.1-55.61A213.7,213.7,0,0,1,586.82,314c-12.63,14.15-29.71,30.2-50.68,42.69,0,0-1.91-20-9-20.84,0,0-22.46,24.76-51.18,35.14s-46.08,27.33-40.49,38.83,12,11.59,12,11.59-14.29-.18-15-2.33-19,22.58-34.63,22.39-12.24-17.84-12.24-17.84-27.33,20.7-30.86,37.9,1.73,45.57,1.73,45.57a137.2,137.2,0,0,1,11.77-8.31c38.07-24.36,82.41-31.69,126.9-26.06,19.85,2.51,31.66,6.6,31.66,6.6h0l.06,0-.05-.09.09,0a73.42,73.42,0,0,0-9.14-12.87c-4.4-5.13-16-18.73-23.6-18.25,50-3.15,104,17.67,135.13,57.52.2.2.39.41.58.61C653.77,537.34,665.79,576.19,661.15,615.41ZM504.75,381.06c-.16.57-5.72,18.49-17.92,24.69-11.68,5.93-18.8,5.09-23.83,4.74,0,0-1.84-10.09,12.77-15.79A276.66,276.66,0,0,0,504.75,381.06Zm-118.6,82c-.48-3.32-1.95-5.79-4.25-6.58-4.38-1.49-10.1,3.69-12.78,11.57a27.14,27.14,0,0,0-1.13,4.61,22.9,22.9,0,0,1,1.2-10.38c2.67-7.88,8.4-13.06,12.77-11.57C385.47,451.9,387.05,457,386.15,463.06Z"/><path class="cls-5" d="M629.71,506.26l-.58-.62C598,465.79,544,445,494,448.13c7.57-.48,19.2,13.11,23.61,18.25a74.41,74.41,0,0,1,9.14,12.86l-.09,0,.05.09-.07,0v0s-11.81-4.1-31.66-6.61c-44.48-5.63-88.82,1.71-126.9,26.06,6.69,11.89,18.72,25.42,50.85,28.65,0,0-11-24.17,18.7-31,61.25-14.07,107.82,29.92,107.37,68a71.28,71.28,0,0,1-3,18.35,66.12,66.12,0,0,1-9.19,19.44,74.94,74.94,0,0,0,46.58-41.69l.71-1.62.17,1.76c.35,3.8.53,7.65.53,11.45,0,35.07-17.08,70.64-46.86,97.58-27.83,25.17-63.1,39-98.51,39-2.76,0-5.57-.17-8.29-.05,19,10.34,44.41,14,65.67,16.22,23,2.37,46.44,1.71,69.07-3.08,30.92-6.56,57.28-24.07,77-49.16,18.13-23.08,26.11-53.44,23-82.25C658.83,562.07,649.85,527.35,629.71,506.26Z"/></g></svg>