<svg width="168" height="32" viewBox="0 0 168 32" fill="none" xmlns="http://www.w3.org/2000/svg">
<g clip-path="url(#clip0_1_27)">
<path d="M16 31.8638C24.7613 31.8638 31.8638 24.7613 31.8638 16C31.8638 7.23865 24.7613 0.136169 16 0.136169C7.23865 0.136169 0.136169 7.23865 0.136169 16C0.136169 24.7613 7.23865 31.8638 16 31.8638Z" fill="#2464F4"/>
<path opacity="0.3" d="M23.9837 15.567C21.8635 12.8538 18.1842 11.4363 14.7833 11.6507C15.298 11.618 16.0905 12.544 16.3901 12.8933C16.6284 13.1621 16.8371 13.4559 17.0124 13.7695H17.0063L17.0097 13.7757H17.0056C17.0056 13.7757 16.2015 13.4972 14.85 13.3263C11.8209 12.943 8.80204 13.442 6.21004 15.1006C6.37621 15.4041 6.58586 15.6816 6.83234 15.9244L6.86774 15.9591L6.87387 15.9646C7.25023 16.3041 7.6911 16.5644 8.17021 16.7299L8.25804 16.7605L8.27846 16.7673C8.73048 16.9115 9.19692 17.0058 9.66944 17.0485C9.66944 17.0485 8.92051 15.4022 10.9426 14.9379C11.4402 14.8226 11.9488 14.7616 12.4596 14.7561C15.8597 14.7227 18.2843 17.2997 18.257 19.569C18.2393 21.0894 17.4019 22.5954 16.1777 23.4948C15.7778 23.8044 15.3256 24.0396 14.8425 24.1893C14.2715 24.3915 13.6763 24.5174 13.0723 24.5637L13.0315 24.5678H12.9879C12.4282 24.614 11.8658 24.6181 11.3055 24.5801C9.71302 24.478 8.10212 24.0817 6.66144 23.3654C5.71406 22.9069 4.85141 22.2908 4.11029 21.5435L4.07693 21.5088C4.02519 21.4547 3.97412 21.4003 3.92374 21.3454L3.87063 21.2868L3.82638 21.2378C3.68298 21.0806 3.54842 20.9156 3.42331 20.7435C3.12257 20.3459 2.84828 19.929 2.60221 19.4955C2.17872 18.7799 1.78519 17.9874 1.60544 17.3447C1.56887 17.225 1.54089 17.1028 1.5217 16.9791C1.86212 20.271 3.32527 23.9537 5.67489 26.3299C6.36035 27.0244 7.11297 27.6493 7.9217 28.1954C13.5047 31.9639 25.3106 31.8986 26.3251 23.3253C26.641 20.655 25.6524 17.7219 24.0231 15.6051C24.0102 15.5949 23.9973 15.5806 23.9837 15.567Z" fill="white"/>
<path d="M22.3939 1.3794C22.4994 1.45225 22.2427 2.51574 22.0126 2.89634C25.1394 4.32485 27.6598 6.81379 29.1275 9.9224C30.5952 13.031 30.9155 16.5587 30.0316 19.8808C29.9881 19.2926 29.5503 16.4269 27.3695 13.5625C24.6577 10.0017 19.7025 9.13702 19.7025 9.13702C19.7025 9.13702 22.1985 9.18127 25.7103 10.7636L24.9552 9.8308C25.1084 9.68646 27.4158 10.5014 29.0172 12.9743C29.0315 12.9927 29.0853 12.8878 29.0172 12.7748C28.5297 11.9843 26.7888 7.7937 19.6534 7.46416C19.6534 7.46416 17.9465 8.71421 16.3356 9.08459C16.3356 9.08459 17.3726 7.87948 17.3808 7.19931C17.3808 7.19931 20.3608 6.23659 21.4093 4.03404L20.5821 4.0245C20.5821 4.0245 21.7164 2.73089 22.3911 1.3794C20.3761 0.497067 18.1998 0.0426572 16 0.0449304C7.18841 0.0449304 0.0449219 7.18842 0.0449219 16C0.0449219 24.8116 7.18841 31.9551 16 31.9551C24.8116 31.9551 31.9551 24.8116 31.9551 16C31.9551 9.46382 28.0225 3.84408 22.3939 1.3794ZM26.1549 23.0407C25.1411 31.614 13.504 31.9673 7.92169 28.1988C7.11296 27.6527 6.36034 27.0278 5.67488 26.3333C3.32662 23.9571 1.86211 20.2737 1.52169 16.9825C1.48542 16.7044 1.47085 16.424 1.47811 16.1437C1.47442 14.866 1.63692 13.5932 1.96152 12.3574C2.4895 10.4025 3.41977 8.57922 4.69279 7.00437C5.96581 5.42953 7.55356 4.13776 9.35444 3.21172C11.1553 2.28567 13.1297 1.74575 15.1512 1.62649C17.1727 1.50723 19.1968 1.81127 21.0941 2.51914C20.2342 3.48255 19.0713 4.57531 17.6436 5.4257C17.6436 5.4257 17.5135 4.06399 17.0308 4.0068C17.0308 4.0068 15.5016 5.69259 13.5462 6.39931C11.5908 7.10604 10.4088 8.26008 10.7894 9.04306C11.17 9.82604 11.6065 9.83216 11.6065 9.83216C11.6065 9.83216 10.6335 9.81991 10.5852 9.67353C10.5368 9.52714 9.29156 11.2109 8.22739 11.198C7.16322 11.185 7.39403 9.98331 7.39403 9.98331C7.39403 9.98331 5.53326 11.3927 5.29292 12.5637C5.05258 13.7348 5.41071 15.6664 5.41071 15.6664C5.66774 15.4639 5.93522 15.275 6.21207 15.1006C8.80407 13.442 11.823 12.943 14.8521 13.3263C16.2036 13.4972 17.0076 13.7757 17.0076 13.7757H17.0117L17.0083 13.7695H17.0145C16.8391 13.4559 16.6305 13.1621 16.3922 12.8933C16.0926 12.544 15.3028 11.618 14.7853 11.6507C18.1896 11.4362 21.8662 12.8538 23.9857 15.567C23.9993 15.5806 24.0122 15.5949 24.0252 15.6085C25.6524 17.7253 26.4708 20.3704 26.1549 23.0407ZM15.5064 7.08493C15.4955 7.12374 15.1169 8.34382 14.2863 8.76595C13.491 9.1697 13.0063 9.1125 12.6638 9.08867C12.6638 9.08867 12.5385 8.4017 13.5333 8.01361C14.2083 7.74242 14.8672 7.43233 15.5064 7.08493ZM7.43147 12.6679C7.39879 12.4419 7.29871 12.2737 7.14211 12.2199C6.8439 12.1185 6.45445 12.4711 6.27199 13.0077C6.23722 13.1098 6.21148 13.2149 6.19505 13.3215C6.16746 13.0828 6.19542 12.8409 6.27675 12.6148C6.45854 12.0783 6.84867 11.7256 7.1462 11.8271C7.38518 11.9081 7.49275 12.2553 7.43147 12.6679Z" fill="white"/>
<path opacity="0.4" d="M24.0143 15.6092L23.9748 15.567C21.8553 12.8538 18.1787 11.4383 14.7744 11.6514C15.2899 11.6187 16.0817 12.544 16.3819 12.8939C16.6198 13.1629 16.8284 13.4564 17.0042 13.7695H16.9981L17.0015 13.7756H16.9967C16.9967 13.7756 16.1927 13.4965 14.8412 13.3256C11.8127 12.9423 8.79385 13.442 6.20117 15.0999C6.65666 15.9094 7.47573 16.8306 9.6633 17.0505C9.6633 17.0505 8.91436 15.4049 10.9365 14.9399C15.1067 13.9819 18.2774 16.977 18.2468 19.5697C18.2335 19.9933 18.1649 20.4133 18.0425 20.8191C17.9076 21.2914 17.6962 21.7385 17.4168 22.1426C18.1186 21.9257 18.7653 21.5597 19.3126 21.0699C19.86 20.58 20.2951 19.9777 20.5882 19.3042L20.6366 19.1939L20.6482 19.3137C20.672 19.5724 20.6842 19.8345 20.6842 20.0933C20.6842 22.481 19.5213 24.9028 17.4938 26.737C15.599 28.4507 13.1976 29.3923 10.7867 29.3923C10.5988 29.3923 10.4075 29.3808 10.2223 29.3889C11.5159 30.0929 13.2459 30.3421 14.6934 30.4933C16.2594 30.6546 17.8553 30.6097 19.3961 30.2836C21.5013 29.8369 23.296 28.6448 24.6386 26.9365C25.873 25.3651 26.4163 23.298 26.2046 21.3365C25.9969 19.409 25.3855 17.0451 24.0143 15.6092Z" fill="white"/>
</g>
<path d="M51.824 26.816V27.248H51.68C51.44 27.272 51.176 27.272 50.864 27.272C47.024 27.272 44.12 26.264 42.488 24.344L41.36 23.024C39.656 22.448 38.888 21.968 37.952 20.96C36.536 19.424 35.816 17.456 35.816 15.104C35.816 10.232 39.08 6.776 43.664 6.776C48.248 6.776 51.512 10.208 51.512 15.056C51.512 17.72 50.6 19.904 48.824 21.488C47.72 22.448 46.856 22.856 45.224 23.168C47.168 25.688 49.088 26.744 51.824 26.816ZM43.736 7.64C42.344 7.64 41.192 8.144 40.232 9.2C39.248 10.304 38.552 12.656 38.552 14.96C38.552 17.792 39.32 20.168 40.568 21.296C41.456 22.064 42.512 22.472 43.664 22.472C44.984 22.472 46.232 21.92 47.12 20.936C48.08 19.832 48.776 17.384 48.776 15.008C48.776 12.296 48.008 9.992 46.712 8.84C45.872 8.096 44.768 7.64 43.736 7.64ZM68.7716 7.112V7.568C66.8276 7.784 66.5636 8.12 66.5156 10.64V16.904C66.5156 18.752 66.2996 19.856 65.7236 20.864C64.7876 22.496 62.9876 23.336 60.3716 23.336C56.2916 23.336 54.3476 21.368 54.3476 17.216V9.728C54.3236 7.952 54.0836 7.712 52.1876 7.568V7.112H58.9796V7.568C57.0596 7.736 56.8196 7.976 56.7956 9.728V17.408C56.7956 18.92 56.9636 19.808 57.3956 20.576C58.0436 21.704 59.2196 22.28 60.9236 22.28C62.7236 22.28 64.2596 21.536 64.9076 20.384C65.2916 19.664 65.4596 18.752 65.4596 17.12V10.64C65.4116 8.168 65.0516 7.688 63.2036 7.568V7.112H68.7716ZM69.6039 23V22.544C71.6199 22.472 71.9079 22.208 71.9319 20.384V9.728C71.9079 7.928 71.6439 7.688 69.6039 7.568V7.112H76.7319V7.568C74.7399 7.64 74.4279 7.928 74.3799 9.728V20.384C74.4279 22.16 74.7639 22.496 76.7319 22.544V23H69.6039ZM92.0441 12.176H91.4921C91.0361 10.616 90.6761 9.944 89.9081 9.176C88.9481 8.24 87.7001 7.736 86.3321 7.736C82.8521 7.736 80.6201 10.52 80.6201 14.888C80.6201 17.552 81.3641 19.712 82.6841 20.888C83.7161 21.8 85.0601 22.28 86.5721 22.28C88.5641 22.28 90.1481 21.56 91.9241 19.856L92.3561 20.288C90.9161 22.232 88.5161 23.336 85.8041 23.336C81.0281 23.336 77.8361 20.072 77.8361 15.176C77.8361 12.536 78.7481 10.328 80.4281 8.84C81.9401 7.52 83.9081 6.776 85.8761 6.776C87.0041 6.776 88.2041 6.968 89.3801 7.376C89.7401 7.496 90.1001 7.568 90.3161 7.568C90.7961 7.568 91.1801 7.28 91.3241 6.776H91.8281L92.0441 12.176ZM102.752 7.568V7.112H109.04V7.568C107.408 7.688 107.024 7.88 105.392 9.44L100.832 13.952L106.424 19.952C108.608 22.28 108.944 22.52 110.192 22.544V23H102.872V22.544C103.16 22.52 103.424 22.52 103.544 22.52C104.24 22.496 104.552 22.328 104.552 21.992C104.552 21.416 103.256 19.736 101.432 17.912L98.8878 15.392L98.2638 15.896V20.384C98.2878 22.16 98.5758 22.424 100.424 22.544V23H93.6558V22.544C95.5278 22.424 95.7918 22.16 95.8158 20.12V9.728C95.7678 7.976 95.5038 7.688 93.6558 7.568V7.112H100.472V7.568C98.5278 7.712 98.2878 7.928 98.2638 9.728V14.648L102.512 10.784C103.832 9.56 104.384 8.84 104.384 8.312C104.384 7.736 104.192 7.64 102.752 7.568ZM120.986 6.776L121.514 11.888H120.914C120.53 10.472 120.194 9.848 119.45 9.08C118.61 8.216 117.602 7.76 116.522 7.76C115.034 7.76 114.026 8.648 114.026 9.968C114.026 11.288 115.034 12.344 117.554 13.712C120.722 15.44 122.042 17 122.042 18.968C122.042 21.44 119.93 23.336 117.146 23.336C116.21 23.336 115.226 23.144 114.314 22.784C113.858 22.616 113.45 22.52 113.186 22.52C112.826 22.52 112.538 22.856 112.514 23.312H111.986L111.266 18.224H111.818C113.018 21.152 114.506 22.472 116.666 22.472C118.418 22.472 119.618 21.368 119.618 19.784C119.618 19.184 119.498 18.68 119.282 18.368C118.682 17.456 117.434 16.496 115.706 15.56C113.018 14.144 111.962 12.8 111.962 10.88C111.962 9.632 112.394 8.624 113.234 7.88C114.026 7.184 115.082 6.776 116.09 6.776C116.882 6.776 117.77 6.968 118.658 7.304C119.066 7.496 119.474 7.592 119.714 7.592C120.122 7.592 120.386 7.328 120.482 6.776H120.986ZM139.507 22.544V23H133.387V22.544C134.659 22.52 135.067 22.328 135.067 21.728C135.067 21.392 134.898 20.768 134.611 20.12L133.627 17.816H127.339L126.235 20.624C126.115 20.936 126.043 21.272 126.043 21.56C126.043 22.256 126.523 22.544 127.675 22.544V23H122.923V22.544C124.075 22.496 124.363 22.112 125.899 18.608L130.891 6.824H131.371L137.347 20.456C138.187 22.232 138.427 22.472 139.507 22.544ZM127.747 16.832H133.291L130.507 10.232L127.747 16.832ZM151.379 17.456H150.827C150.539 15.512 150.155 15.176 148.187 15.152H144.707V20.384C144.731 22.136 145.067 22.472 146.891 22.544V23H140.171V22.544C141.995 22.424 142.235 22.16 142.259 20.12V9.728C142.211 8 141.923 7.688 140.171 7.568V7.112H152.915L152.987 10.544H152.387C152.003 8.408 151.523 8.072 148.739 8.024H145.475C144.803 8.048 144.731 8.12 144.707 8.84V14.168H148.187C150.155 14.12 150.563 13.784 150.827 11.888H151.379V17.456ZM167.547 18.944L166.467 23H153.507V22.544C155.235 22.448 155.547 22.112 155.595 20.384V9.728C155.547 8 155.259 7.688 153.507 7.568V7.112H166.251L166.323 10.544H165.723C165.339 8.408 164.859 8.072 162.075 8.024H158.835C158.163 8.024 158.067 8.12 158.043 8.84V14.168H161.739C163.755 14.12 164.091 13.832 164.379 11.888H164.931V17.456H164.379C164.067 15.488 163.755 15.2 161.739 15.152H158.043V21.08C158.043 22.016 158.067 22.04 160.563 22.112H161.211C164.643 22.088 165.723 21.488 166.875 18.944H167.547Z" fill="white"/>
<defs>
<clipPath id="clip0_1_27">
<rect width="32" height="32" fill="white"/>
</clipPath>
</defs>
</svg>